<svg xmlns="http://www.w3.org/2000/svg" viewBox="0 0 24 24" width="24" height="24">
  <path fill="currentColor" d="M19,3H5C3.89,3,3,3.89,3,5v14c0,1.1,0.89,2,2,2h14c1.1,0,2-0.9,2-2V5C21,3.89,20.1,3,19,3z M19,19H5V5h14V19z"/>
  <path fill="currentColor" d="M15,12c0-1.66-1.34-3-3-3s-3,1.34-3,3s1.34,3,3,3S15,13.66,15,12z M12,13c-0.55,0-1-0.45-1-1s0.45-1,1-1s1,0.45,1,1 S12.55,13,12,13z"/>
  <path fill="currentColor" d="M7.5,12c0-2.48,2.02-4.5,4.5-4.5s4.5,2.02,4.5,4.5s-2.02,4.5-4.5,4.5S7.5,14.48,7.5,12z M12,15c1.66,0,3-1.34,3-3 s-1.34-3-3-3s-3,1.34-3,3S10.34,15,12,15z"/>
</svg>
